# xmcd
#
# Track frame offsets: 
#        180
#        13036
#        25627
#        37293
#        49559
#        62720
#        76591
#        86095
#        98312
#        112214
#        126880
#        140986
#        153802
#        167242
#        179502
#        197426
#        207155
#        218825
#
# Disc length: 3129 seconds
#
# Revision: 0
# Processed by: cddbd v1.5.2PL0 Copyright (c) Steve Scherf et al.
# Submitted via: ExactAudioCopyFreeDBPlugin 1.0
#
DISCID=f20c3712
DTITLE=Various Artist - The Voices Of The Great Divas [CD 5)
DYEAR=2005
DGENRE=Jazz
TTITLE0=Andrews Sisters - Beer Barrel Polka
TTITLE1=Josephine Baker - After I Say I'm Sorry
TTITLE2=Ella Fitzgerald - (It's Only A) Paper Moon
TTITLE3=Peggy Lee - Easy Living
TTITLE4=Billie Holiday - Love For Sale
TTITLE5=Dinah Shore - Mood Indigo
TTITLE6=Peggy Lee - Aren't You Glad You're You
TTITLE7=Josephine Baker - Pardon Si Je T'importune
TTITLE8=Billie Holiday - No Good Man
TTITLE9=Jo Stafford - Too Marvelous For Words
TTITLE10=Ella Fitzgerald - For Sentimental Reasons
TTITLE11=Josephine Baker - Bye Bye Blackbird
TTITLE12=Ella Fitzgerald - Jim
TTITLE13=Jo Stafford - Haunted Heart
TTITLE14=Edith Piaf - C'est Pour Ca
TTITLE15=Judy Garland - Swanee
TTITLE16=Ella Fitzgerald - Cryin' Mood
TTITLE17=Rosemary Clooney - South Rampart Street Parade
EXTD=
EXTT0=
EXTT1=
EXTT2=
EXTT3=
EXTT4=
EXTT5=
EXTT6=
EXTT7=
EXTT8=
EXTT9=
EXTT10=
EXTT11=
EXTT12=
EXTT13=
EXTT14=
EXTT15=
EXTT16=
EXTT17=
PLAYORDER=
